<?xml version="1.0" encoding="UTF-8" standalone="no"?>
<!-- Created with Inkscape (http://www.inkscape.org/) -->

<svg
   version="1.1"
   id="svg6095"
   width="800"
   height="800"
   viewBox="0 0 800 800"
   sodipodi:docname="wooden-texture-clipart-publicdomainvectors.org.svg"
   inkscape:version="1.2 (dc2aedaf03, 2022-05-15)"
   xmlns:inkscape="http://www.inkscape.org/namespaces/inkscape"
   xmlns:sodipodi="http://sodipodi.sourceforge.net/DTD/sodipodi-0.dtd"
   xmlns="http://www.w3.org/2000/svg"
   xmlns:svg="http://www.w3.org/2000/svg">
  <defs
     id="defs6099">
    <clipPath
       clipPathUnits="userSpaceOnUse"
       id="clipPath6115">
      <path
         d="M 0,600 H 600 V 0 H 0 Z"
         id="path6113" />
    </clipPath>
  </defs>
  <sodipodi:namedview
     id="namedview6097"
     pagecolor="#ffffff"
     bordercolor="#000000"
     borderopacity="0.25"
     inkscape:showpageshadow="2"
     inkscape:pageopacity="0.0"
     inkscape:pagecheckerboard="0"
     inkscape:deskcolor="#d1d1d1"
     showgrid="false"
     inkscape:zoom="1.04625"
     inkscape:cx="399.5221"
     inkscape:cy="400.4779"
     inkscape:window-width="1920"
     inkscape:window-height="1017"
     inkscape:window-x="-8"
     inkscape:window-y="-8"
     inkscape:window-maximized="1"
     inkscape:current-layer="g6103">
    <inkscape:page
       x="0"
       y="0"
       id="page6101"
       width="800"
       height="800" />
  </sodipodi:namedview>
  <g
     id="g6103"
     inkscape:groupmode="layer"
     inkscape:label="Page 1"
     transform="matrix(1.3333333,0,0,-1.3333333,0,800)">
    <path
       d="M 3.371,3.369 H 600 V 600.001 H 3.371 Z"
       style="fill:#392c17;fill-opacity:1;fill-rule:nonzero;stroke:none"
       id="path6105" />
    <path
       d="M 3.371,3.369 H 118.786 V 600.001 H 3.371 Z"
       style="fill:#c69a19;fill-opacity:1;fill-rule:nonzero;stroke:none"
       id="path6107" />
    <g
       id="g6109">
      <g
         id="g6111"
         clip-path="url(#clipPath6115)">
        <g
           id="g6117"
           transform="translate(3.3711,599.9995)">
          <path
             d="M 0,0 H 10.303 C 23.508,-8.097 38.312,-14.446 53.627,-10.339 59.896,-8.657 70.347,-3.667 79.838,0 h 25.957 c 7.652,-7.671 6.653,-23.91 4.643,-33.813 -4.907,-22.684 -12.765,-30.09 2.543,-49.5 0.868,-1.101 1.679,-2.14 2.434,-3.125 v -215.559 c -6.019,1.869 -11.882,1.793 -16.492,-3.604 -11.536,-13.508 8.227,-59.496 16.492,-80.711 v -71.35 c -0.585,-1.015 -1.195,-2.054 -1.832,-3.127 -1.282,-2.152 -2.582,-4.162 -3.952,-6.252 -17.625,-26.271 4.911,-52.382 -3.839,-76.011 -6.78,-16.35 -20.735,-14.559 -32.34,-30.36 -5.41,-7.363 -10.537,-16.195 -15.862,-23.218 H 23.202 c -1.266,1.763 -2.559,3.718 -3.886,5.918 -22.25,36.855 -11.596,71.267 -5.314,110.826 0.498,3.133 0.827,5.898 1.08,9.056 0.844,14.461 0.71,24.27 -4.842,37.737 -5.706,14.51 -8.983,29.898 -10.24,45.478 v 21.317 c 4.589,20.789 33.97,26.341 28.833,53.267 -4.084,21.404 -31.764,35.879 -26.719,53.409 0.987,3.426 3.039,8.076 4.518,11.444 12.443,27.884 9.629,51.232 15.644,80.581 1.267,6.179 2.934,13.845 3.209,20.132 0.009,13.287 -5.666,25.76 -10.414,37.853 C 9.873,-96.504 5.78,-90.214 0,-80.776 Z"
             style="fill:#d6a519;fill-opacity:1;fill-rule:evenodd;stroke:none"
             id="path6119" />
        </g>
        <g
           id="g6121"
           transform="translate(118.7866,426.5103)">
          <path
             d="m 0,0 v -99.383 c -8.962,6.29 -19.482,11.273 -29.207,7.885 -26.267,-9.147 -10.977,-53.862 -5.799,-73.131 0.76,-2.772 1.52,-5.51 2.339,-8.264 6.024,-20.246 10.772,-27.977 13.534,-50.119 0.89,-6.278 2.189,-12.336 3.138,-18.557 3.051,-19.998 -4.373,-31.074 -12.469,-48.701 -8.267,-19.09 -8.302,-26.031 1.439,-44.354 3.68,-6.988 11.528,-20.603 9.493,-28.334 -4.467,-16.98 -30.886,-5.626 -39.348,-20.878 -4.085,-7.364 -6.22,-12.77 -11.011,-20.508 -2.547,-4.112 -3.579,-8.539 -5.566,-4.061 -8.766,19.76 -8.253,20.152 -22.947,35.221 -16.75,17.176 -0.093,38.478 8.567,56.59 8.689,18.572 5.06,44.996 -1.371,63.793 -6.89,17.179 -9.601,35.929 -9.528,54.445 0.048,12.18 36.408,23.982 29.106,62.252 -3.023,12.731 -11.138,24.74 -16.065,38.084 -3.542,10.037 -4.6,11.299 -0.906,20.062 10.094,23.944 5.641,32.311 10.851,54.804 9.864,40.729 6.754,54.808 -8.592,93.745 -5.934,15.028 -12.606,24.899 -20.557,38.436 -2.072,3.525 -6.357,10.897 -10.516,18.882 v 31.214 c 33.265,-20.645 49.859,-16.815 87.865,-9.156 4.474,-10.221 2.009,-15.903 -1.251,-25.992 C -42.135,82.72 -11.999,77.427 -10.328,66.21 -11.268,44.683 -12.365,25.862 -2.99,5.834 -1.985,3.786 -0.981,1.865 0,0"
             style="fill:#e4b52d;fill-opacity:1;fill-rule:evenodd;stroke:none"
             id="path6123" />
        </g>
        <g
           id="g6125"
           transform="translate(86.4063,164.75)">
          <path
             d="m 0,0 c 2.75,10.646 -0.647,32.541 -1.456,44.871 -1.862,28.41 -2.221,34.781 -15.293,60.506 -1.698,3.311 -5.539,10.889 -5.927,14.287 -0.778,-1.373 -2.403,-5.607 -3.693,-7.994 -9.852,-18.225 -16.556,-29.963 -30.942,-45.024 -4.353,-5.326 0.222,-10.429 2.626,-17.13 8.818,-24.579 4.561,-46.682 15.393,-71.241 15.73,-48.42 -15.513,-46.32 -17.784,-69.39 -0.541,-5.492 10.639,-31.383 13.241,-31.934 1.406,-0.297 7.334,9.567 9.481,11.916 9.859,10.793 24.244,11.82 37.495,14.799 -5.234,25.256 -22.962,39.467 -15.953,65.641 C -7.736,-18.822 -3.811,-13.598 0,0 m 6.298,320.549 c 0.181,4.339 -0.356,2.467 -4.609,6.425 -8.098,8.394 -10.528,19.414 -14.809,30.171 -3.618,9.179 -5.322,13.848 -6.321,23.85 -22.476,-4.567 -26.266,13.967 -49.461,20.121 -4.252,1.129 1.166,-9.582 1.909,-11.26 8.992,-20.312 17.078,-35.826 28.438,-54.932 9.219,-15.592 15.005,-36.415 15.549,-54.596 0.17,-15.443 -0.224,-23.815 -2.224,-39.141 -1.977,-15.149 1.061,-11.353 -5.289,-27.599 -2.412,-6.172 -7.907,-23.917 -9.062,-30.003 1.461,-15.847 3.631,-25.372 12.582,-38.418 0.676,15.546 5.429,39.029 17.9,48.877 9.313,5.113 30.32,2.345 31.98,4.475 4.006,5.136 3.815,22.27 3.126,28.751 -2.955,27.774 -7.987,26.583 -15.754,50.736 -4.087,12.711 -4.417,29.204 -3.955,42.543"
             style="fill:#efc037;fill-opacity:1;fill-rule:evenodd;stroke:none"
             id="path6127" />
        </g>
        <g
           id="g6129"
           transform="translate(70.4214,158.5078)">
          <path
             d="m 0,0 c -0.618,6.555 -2.35,13.453 -3.057,20.887 -1.601,16.81 -3.441,27.804 -0.798,44.75 2.08,13.334 3.049,27.929 -3.838,40.029 -3.576,-4.014 -17.871,-22.67 -16.4,-27.488 1.477,-4.842 0.822,-23.346 1.493,-30.629 1.036,-11.231 2.352,-21.528 3.108,-32.918 1.086,-16.391 3.552,-16.906 13.138,-27.322 0.893,-0.967 1.676,1.441 2.607,3.068 C -2.156,-6.838 -0.234,-3.252 0,0 m -2.318,-79.023 c -7.642,24.332 1.175,21.953 -15.549,4.554 -2.429,-2.527 -12.208,-10.832 -9.698,-15.095 9.319,3.607 10.554,6.154 22.058,7.761 l 2.401,0.225 1.068,0.754 z m 2.893,411.12 c -13.384,27.094 -12.903,10.787 -7.689,-6.12 C 3.892,291.772 7.76,287.623 5.434,250.238 4.858,240.987 -4.515,215.4 -3.753,212.422 c 2.993,-0.385 9.913,17.299 29.037,17.171 -0.137,12.226 0.078,15.787 -1.795,28.522 -1.764,12.004 -2.559,20.224 -5.894,32.22 -4.357,14.017 -10.598,28.594 -17.02,41.762"
             style="fill:#f7ce4b;fill-opacity:1;fill-rule:evenodd;stroke:none"
             id="path6131" />
        </g>
        <path
           d="M 123.675,600 H 239.09 V 3.37 H 123.675 Z"
           style="fill:#a67c1e;fill-opacity:1;fill-rule:evenodd;stroke:none"
           id="path6133" />
        <g
           id="g6135"
           transform="translate(174.251,599.9995)">
          <path
             d="m 0,0 h 32.544 c 6.483,-22.455 0.401,-35.111 28.051,-44.75 1.502,-0.524 2.913,-1.066 4.244,-1.627 V -596.63 h -87.755 c 1.157,8.734 0.862,18.691 -0.866,31.793 -3.646,27.625 -10.092,47.943 -25.714,71.265 -0.372,0.557 -0.731,1.098 -1.08,1.627 v 108.885 c 5.462,3.658 10.918,8.402 13.309,19.98 4.036,19.547 -5.735,56.135 -13.309,85.381 v 145.337 c 2.255,12.547 4.768,25.073 7.565,37.642 5.746,25.605 16.935,14.588 27.17,40.205 C -11.537,-43.077 -5.885,-15.653 0,0"
             style="fill:#b88f1c;fill-opacity:1;fill-rule:evenodd;stroke:none"
             id="path6137" />
        </g>
        <path
           d="M 243.978,600 H 359.395 V 3.37 H 243.978 Z"
           style="fill:#d6a519;fill-opacity:1;fill-rule:evenodd;stroke:none"
           id="path6139" />
        <g
           id="g6141"
           transform="translate(257.5669,599.9995)">
          <path
             d="m 0,0 h 91.786 c 1.32,-8.015 -0.173,-10.659 8.126,-24.46 0.646,-1.064 1.286,-2.102 1.916,-3.12 v -90.417 c -4.909,-14.331 -7.923,-29.445 -13.957,-44.401 -13.89,-34.418 7.364,-32.084 11.14,-58.522 1.82,-12.755 -11.094,-40.773 -16.068,-53.475 -2.149,-5.488 -4.519,-9.892 -7.383,-15.005 -16.289,-26.873 -17.008,-32.125 -2.249,-59.916 l 1.185,-2.232 c 15.271,-28.52 10.657,-32.049 7.87,-60.827 -2.175,-22.458 8.77,-33.994 18.895,-52.562 0.143,-0.266 0.334,-0.619 0.567,-1.041 v -42.697 c -15.685,7.097 -28.114,17.138 -32.133,-13.494 -2.42,-18.448 5.712,-51.618 3.741,-74.461 H 7.454 c -10.069,10.328 -18.03,21.775 -21.043,30.13 v 138.137 c 4.373,16.405 9.31,32.336 13.187,49.356 5.589,24.529 -8.541,38.16 -13.187,52.642 v 16.424 c 2.022,5.695 6.388,11.984 14.285,19.346 38.263,35.685 21.072,38.243 -3.647,71.13 -6.339,8.434 -10.026,16.134 -10.638,24.376 v 4.931 c 0.357,4.936 1.777,10.139 4.346,15.858 13.236,27.431 25.866,24.09 -4.346,44.976 v 100.408 c 4.12,11.51 9.057,24.675 11.878,27.582 C -1.201,-0.897 -0.627,-0.452 0,0"
             style="fill:#e4b52d;fill-opacity:1;fill-rule:evenodd;stroke:none"
             id="path6143" />
        </g>
        <g
           id="g6145"
           transform="translate(285.1152,599.9995)">
          <path
             d="m 0,0 h 49.882 c 4.213,-14.169 8.079,-27.598 11.947,-42.725 4.317,-16.195 9.531,-23.381 1.061,-39.616 -19.021,-36.833 -35.424,-80.775 -16.465,-121.064 6.277,-13.34 14.936,-18.108 7.744,-31.079 -6.134,-10.561 -13.101,-19.597 -19.992,-29.591 -7.861,-11.14 -18.391,-23.311 -24.837,-35.248 -12.153,-22.511 11.988,-37.38 24.002,-56.352 13.333,-21.582 9.542,-26.512 -1.317,-48.096 -17.345,-35.67 9.26,-42.928 28.965,-66.467 5.564,-6.648 6.284,-6.582 0.85,-7.767 -13.425,-2.926 -22.993,-11.135 -30.009,-22.61 l -1.081,-1.808 C 8.604,-539.472 25.799,-564.105 26.373,-596.63 H -9.239 c -2.557,2.857 -4.737,6.224 -6.443,10.158 -10.378,23.92 -8.413,66.912 -16.31,95.291 -18.827,63.877 29.043,72.076 33.141,123.461 -0.584,19.681 -29.72,49.857 -26.506,56.193 3.354,6.612 32.023,20.902 44.639,42.53 15.137,30.508 -24.829,44.508 -43.266,58.377 -38.465,30.568 45.528,39.438 9.328,82.734 -3.274,3.487 -21.807,18.534 -26.481,23.104 v 27.642 c 2.74,6.671 8.183,12.857 16.854,26.825 9.458,15.237 9.631,31.378 18.015,43.684 C -4.396,-4.511 -2.291,-2.264 0,0"
             style="fill:#efc037;fill-opacity:1;fill-rule:evenodd;stroke:none"
             id="path6147" />
        </g>
        <g
           id="g6149"
           transform="translate(316.1582,476.4663)">
          <path
             d="m 0,0 c 5.195,16.123 21.806,51.48 21.477,65.927 -0.332,14.541 -9.53,32.78 -15.099,46.234 -3.165,7.644 -8.008,5.921 -16.567,4.66 -16.089,-2.369 -12.929,-2.454 -19.082,-18.334 -8.628,-22.262 -13.236,-30.677 -26.593,-50.729 -4.648,-6.979 -3.043,-11.312 -2.817,-19.34 v -3.741 c 2.701,-2.356 5.547,-4.664 8.175,-6.892 15.83,-13.342 33.378,-29.652 23.318,-52.399 -5.934,-13.417 -28.234,-24.943 -31.908,-32.842 7.675,-11.31 54.2,-18.99 64.326,-44.485 2.828,-7.117 0.357,-9.047 8.274,2.443 6.558,9.516 5.82,7.58 -0.163,20.055 -15.835,33.011 -25.195,48.969 -14.45,85.652 z m -12.063,-319.783 c -5.768,30.944 17.022,41.551 14.735,69.118 -2,13.955 -16.623,27.003 -26.006,36.91 -9.229,9.834 -3.272,2.634 0.401,-5.619 29.327,-84.266 -26.674,-66.45 -25.964,-125.207 0.141,-11.612 4.352,-29.303 5.461,-42.694 1.573,-19.014 2.932,-35.824 2.483,-54.943 -0.248,-10.6 2.084,-26.473 16.069,-26.781 3.1,-0.067 0.99,9.037 1.325,12.939 1.665,19.346 5.693,30.986 5.45,52.199 -0.26,22.506 1.229,35.188 11.622,55.59 3.069,6.025 1.215,7.963 -1.127,15.129 -1.46,4.471 -3.079,8.863 -4.449,13.359"
             style="fill:#f7ce4b;fill-opacity:1;fill-rule:evenodd;stroke:none"
             id="path6151" />
        </g>
        <g
           id="g6153"
           transform="translate(298.7192,433.6665)">
          <path
             d="m 0,0 c -3.605,-6.338 -9.091,-11.728 -14.527,-16.42 -2.491,-2.151 -5.052,-4.204 -7.602,-6.273 0.586,-0.269 1.095,-0.499 1.484,-0.676 7.475,-3.396 15,-6.535 22.299,-10.324 4.366,-2.265 8.732,-4.791 12.835,-7.671 C 7.216,-26.044 1.879,-13.61 0,0 m 13.257,148.062 c -1.513,-0.234 -3.142,-0.564 -4.199,-0.72 -1.421,-0.208 -3.949,-0.495 -5.873,-0.904 -0.181,-0.518 -0.349,-1.036 -0.495,-1.459 -0.953,-2.743 -1.9,-5.468 -2.952,-8.177 -3.598,-9.287 -7.368,-18.471 -12.008,-27.295 -4.704,-8.944 -10.227,-17.424 -15.825,-25.828 -0.587,-0.88 -1.056,-1.681 -1.151,-2.74 -0.197,-2.175 0.14,-5.108 0.318,-7.639 1.288,-1.075 2.58,-2.147 3.862,-3.229 2.916,-2.459 5.806,-4.949 8.599,-7.547 7.939,-7.382 15.332,-15.855 19.238,-26.068 0.493,1.959 1.042,3.971 1.648,6.041 l 1.157,3.951 0.05,0.158 c 4.247,13.176 21.147,50.272 20.881,61.838 -0.26,11.418 -8.372,28.216 -13.25,39.618 m -21.264,-416.68 c -1.962,-2.484 -3.801,-5.046 -5.348,-7.777 -4.47,-7.887 -5.801,-16.246 -5.693,-25.238 0.089,-7.252 1.664,-15.475 2.823,-22.662 1.023,-6.34 2.065,-12.75 2.595,-19.157 0.206,-2.478 0.408,-4.949 0.604,-7.42 0.488,18.635 3.405,32.356 12.92,51.034 0.028,0.054 0.059,0.117 0.09,0.179 -0.499,1.713 -1.446,3.903 -1.956,5.463 -1.483,4.543 -3.131,9.026 -4.523,13.598 l -0.202,0.664 -0.127,0.678 c -0.709,3.804 -1.09,7.32 -1.183,10.638"
             style="fill:#f7da74;fill-opacity:1;fill-rule:evenodd;stroke:none"
             id="path6155" />
        </g>
        <path
           d="M 364.281,600 H 479.698 V 3.37 H 364.281 Z"
           style="fill:#c69a19;fill-opacity:1;fill-rule:evenodd;stroke:none"
           id="path6157" />
        <g
           id="g6159"
           transform="translate(386.1602,599.9995)">
          <path
             d="m 0,0 h 49.146 c 1.576,-5.872 3.265,-11.533 6.782,-16.454 9.395,-13.14 16.343,-18.491 24.957,-34.525 4.703,-8.756 7.606,-17.185 12.653,-23.722 v -37.793 c -3.406,-0.308 -6.642,-0.296 -9.434,0.116 -6.657,0.983 -6.644,-7.975 -7.998,-14.26 -4.739,-21.984 0.297,-30.98 17.432,-39.167 v -110.183 c -18.148,-9.912 -31.51,-28.09 -40.451,-46.459 -15.773,-35.925 9.106,-67.972 23.681,-101.053 5.074,-11.773 11.058,-26.398 16.77,-42.06 v -131.07 h -44.26 c -13.05,15.056 -25.406,28.179 -28.817,28.47 -6.374,0.541 -6.356,-15.363 -5.332,-28.47 H -12.96 c -1.511,7.505 -2.946,15.072 -4.277,22.736 -1.165,6.705 -2.799,12.492 -4.642,17.713 v 129.084 c 0.209,4.508 0.621,8.625 1.171,13.23 1.736,12.739 3.929,24.336 4.939,37.287 1.845,29.256 4.115,43.745 9.821,71.993 6.576,32.556 19.007,93.058 8.317,124.408 -5.805,14.052 -15.473,20.236 -24.248,26.145 v 71.763 c 5.293,9.149 10.107,19.05 11.955,30.66 C -8.8,-44.542 -5.935,-20.676 0,0"
             style="fill:#d6a519;fill-opacity:1;fill-rule:evenodd;stroke:none"
             id="path6161" />
        </g>
        <g
           id="g6163"
           transform="translate(406.3584,599.9995)">
          <path
             d="M 0,0 H 9.473 C 16.89,-21.49 25.345,-36.248 43.712,-51.309 65.839,-69.454 60.592,-70.237 73.34,-89.74 v -14.174 c -16.238,-0.846 -30.009,-3.799 -36.397,-23.66 -9.909,-30.803 11.501,-47.249 36.397,-58.881 v -68.622 c -26.382,-10.472 -45.277,-34.009 -57.481,-59.081 l -0.162,-0.334 -0.151,-0.342 c -13.052,-32.103 -5.338,-62.185 12.75,-90.564 23.076,-36.201 29.144,-42.203 37.142,-87.684 2.247,-12.775 5.588,-26.277 7.902,-39.572 V -596.63 H 55.635 c -17.024,22.964 -41.678,53.939 -59.874,51.564 -21.393,-2.795 -20.772,-27.434 -22.492,-43.371 -3.34,9.076 -6.027,18.443 -7.81,27.951 -0.845,4.574 -1.674,9.129 -2.413,13.721 -9.311,57.906 12.384,67.807 13.774,116.674 0.493,17.388 4.683,34.548 6.108,52.234 1.665,24.604 4.611,45.375 9.489,69.52 7.291,36.092 19.528,96.494 8.476,131.538 -6.642,21.059 -26.294,27.484 -42.97,36.82 v 37.088 c 3.148,3.005 6.307,5.698 8.81,7.88 C 11.165,-56.292 -11.684,-39.101 0,0"
             style="fill:#e4b52d;fill-opacity:1;fill-rule:evenodd;stroke:none"
             id="path6165" />
        </g>
        <g
           id="g6167"
           transform="translate(422.6914,479.9727)">
          <path
             d="m 0,0 c 4.781,14.711 16.015,22.448 30.093,27.087 l 7.925,2.263 C 25.997,45.22 14.418,52.676 1.746,71.631 -18.272,101.58 -9.283,98.881 -11.49,66.183 c -3.475,-29.39 -14.893,-31.84 -32.961,-49.374 -6.448,-6.257 -8.676,-16.748 -7.237,-25.308 0.905,-5.374 8.098,-4.804 14.079,-7.251 42.031,-20.94 49.24,-44.549 43.101,-89.689 -1.408,-8.909 -15.58,-66.155 -11.082,-69.741 0.07,-0.055 9.48,18.848 10.104,19.871 8.547,13.968 17.145,20.819 31.088,29.037 7.749,4.384 7.573,8.001 8.898,17.015 5.024,34.164 3.359,18.582 -20.338,44.219 -11.014,11.918 -20.508,24.365 -25.476,40 C -3.303,-15.731 -2.495,-9.035 0,0 m -43.286,-397.975 c -0.888,-7.908 -0.349,-13.861 0.681,-21.689 42.913,20.92 55.785,7.32 77.133,-31.457 10.452,-18.613 4.231,-0.717 3.217,11.781 -1.651,24.506 1.609,34.959 -4.273,60.67 -9.642,41.76 -13.783,50.475 -35.305,85.73 -5.923,9.704 -9.682,17.19 -14.602,27.317 -2.974,6.117 -4.078,3.998 -6.318,-2.375 -8.898,-25.322 -1.965,-48.656 -6.848,-74.84 -1.204,-6.457 -2.439,-11.976 -4.165,-18.324 l -1.263,-3.994 c -4.035,-11.834 -6.593,-20.301 -8.257,-32.819"
             style="fill:#efc037;fill-opacity:1;fill-rule:evenodd;stroke:none"
             id="path6169" />
        </g>
        <g
           id="g6171"
           transform="translate(388.0869,478.6641)">
          <path
             d="M 0,0 C 37.026,-23.232 11.364,-22.797 29.729,13.128 34.915,23.275 41.548,28.191 47.217,36.993 44.884,40.501 33.512,55.04 30.479,56.459 28.788,53.19 30.303,35.973 20.548,25.779 15.8,20.817 -5.576,8.92 -2.831,2.503 Z m 62.978,-105.028 c 2.97,17.217 2.701,10.623 -8.615,24.507 -3.36,4.123 -1.916,-1.769 -2.335,-7.311 -1.065,-14.029 -3.592,-28.986 -5.947,-42.89 18.476,13.005 13.44,5.055 16.897,25.694 M 21.419,-298.562 c -0.375,0.617 -0.748,1.232 -1.117,1.851 -0.017,-0.609 -0.03,-1.225 -0.041,-1.838 -0.311,-34.844 -0.036,-41.736 -8.534,-75.695 -1.598,-6.379 -2.756,-12.453 -3.438,-18.994 23.961,-1.549 35.319,-12.762 51.516,-28.961 0.07,31.324 -10.415,73.883 -25.414,101.383 -4.123,7.56 -8.501,14.9 -12.972,22.254"
             style="fill:#f7ce4b;fill-opacity:1;fill-rule:evenodd;stroke:none"
             id="path6173" />
        </g>
        <path
           d="M 484.585,3.369 H 600 V 600 H 484.585 Z"
           style="fill:#946c1e;fill-opacity:1;fill-rule:evenodd;stroke:none"
           id="path6175" />
        <g
           id="g6177"
           transform="translate(527.5205,599.9995)">
          <path
             d="m 0,0 h 33.391 c 3.287,-3.845 6.557,-9.169 10.054,-16.108 9.324,-18.505 13.941,-15.479 29.034,-22.498 v -215.637 c -30.349,-21.841 -21.289,-66.606 -19.567,-98.956 0.543,-12.656 0.595,-52.263 3.365,-61.486 2.855,-9.494 8.671,-18.408 16.202,-26.695 V -518 c -11.277,-2.468 -21.114,-7.98 -24.562,-19.279 -2.357,-7.717 -4.966,-29.301 -6.94,-39.197 -1.356,-6.787 -2.829,-13.467 -4.416,-20.154 H -6.241 c 0.537,4.836 1.005,9.58 1.353,14.189 2.642,22.367 19.787,45.643 13.913,64.861 -2.868,9.387 -5.374,-2.117 -11.631,13.166 -8.35,20.387 -15.756,17.457 -24.516,31.18 -7.458,19.119 20.051,37.879 5.154,62.641 -6.885,11.447 -14.231,9.449 -20.968,3.203 v 74.488 c 10.772,9.123 21.465,7.26 24.609,25.967 4.395,26.177 -10.125,50.788 -2.541,85.629 11.061,50.791 7.874,34.943 -13.455,81.206 l -1.26,2.728 c -2.003,4.58 -4.617,10.567 -7.353,17.362 v 88.929 c 10.543,8.631 24.663,17.329 33.981,24.554 3.2,2.481 6.174,4.662 8.955,6.527"
             style="fill:#a67c1e;fill-opacity:1;fill-rule:evenodd;stroke:none"
             id="path6179" />
        </g>
        <g
           id="g6181"
           transform="translate(600,537.6646)">
          <path
             d="m 0,0 v -167.451 c -4.961,-2.799 -8.204,-4.139 -8.131,-4.098 -15.185,-7.946 -23.687,-17.854 -29.358,-34.084 l -1.327,-3.964 c -11.382,-33.931 -8.966,-49.39 1.059,-82.427 3.59,-12.059 6.091,-21.93 6.385,-34.574 -0.459,-5.901 -1.205,-11.565 -1.824,-17.43 -1.844,-17.5 -3.893,-28.027 11.909,-37.711 9.228,-5.654 15.613,-8.935 21.287,-12.326 v -31.871 c -15.854,-7.412 -28.894,-23.824 -34.326,-39.338 -6.11,-17.445 -5.995,-28.408 -14.429,-47.707 -1.733,-3.709 -3.519,-10.51 -2.752,-3.463 1.552,17.162 0.865,33.492 -0.284,50.592 -0.641,8.973 -1.584,24.836 -4.876,32.602 -3.987,9.404 -23.225,20.253 -32.35,27.187 -5.109,5.434 12.572,34.574 15.415,40.787 12.11,30.098 -4.406,49.145 -35.661,47.147 -0.495,16.781 -3.674,28.351 10.293,40.277 20,17.076 32.539,34.785 26.963,62.28 -8.741,35.224 -20.229,30.925 -6.171,72.271 14.14,40.205 7.285,39.22 -9.209,74.488 -5.261,10.743 -20.043,32.371 -28.028,50.599 v 31.191 c 10.864,12.729 36.094,27.727 46.284,32.905 6.123,3.111 12.375,8.807 16.419,3.347 9.4,-12.696 9.263,-17.495 23.635,-28.525 C -18.74,12.769 -8.955,6.229 0,0"
             style="fill:#b88f1c;fill-opacity:1;fill-rule:evenodd;stroke:none"
             id="path6183" />
        </g>
        <g
           id="g6185"
           transform="translate(600,524.2627)">
          <path
             d="m 0,0 v -133.698 c -4.822,-2.519 -10.559,-4.918 -18.032,-8.238 -25.445,-11.297 -38.919,-40.72 -40.87,-67.269 -0.381,-5.201 -8.783,20.301 -9.31,21.827 -18.332,53.197 21.092,61.804 6.915,103.824 -7.101,16.517 -14.367,28.094 -19.976,46.127 -5.878,18.899 -10.074,30.861 -17.793,49.199 -1.92,4.647 -3.298,5.542 -0.574,7.758 12.778,10.376 23.17,12.572 38.432,16.874 C -41.816,15.617 -21.682,21.215 0,0 m -63.228,-247.146 c -8.86,-7.527 -31.16,-22.38 -32.008,-33.953 -0.271,-3.672 2.516,-1.24 9.528,-2.965 19.881,-6.154 29.76,-23.404 32.601,-43.189 2.751,-26.732 -10.304,-39.74 -22.089,-61.996 16.837,-17.746 22.197,-21.123 29.612,-45.228 11.796,15.689 24.575,28.244 41.305,38.458 -32.353,23.336 -44.006,22.68 -44.954,67.616 l -0.12,5.609 c -0.122,29.719 -3.443,33.572 -10.837,60.703 -1.451,5.328 -2.232,9.498 -3.038,14.945"
             style="fill:#c69a19;fill-opacity:1;fill-rule:evenodd;stroke:none"
             id="path6187" />
        </g>
        <g
           id="g6189"
           transform="translate(539.4141,354.3921)">
          <path
             d="m 0,0 c 13.117,26.024 24.024,32.465 48.83,43.582 0.938,18.811 3.682,37.716 4.479,55.832 0.143,12.855 -2.343,48.502 -10.934,58.361 -12.863,14.769 -27.443,23.959 -43.37,34.5 -6.276,4.155 -3.766,5.006 -13.345,-1.069 -14.997,-9.51 -11.647,-8.864 -6.681,-24.927 C -15.27,147.67 -5.171,127.27 2.063,108.514 3.989,103.513 6.116,98.578 8.179,93.63 15.607,75.31 13.872,61.52 8.393,42.992 5.789,34.643 2.492,28.316 0.315,19.455 -1.093,12.844 -1.033,6.385 0,0 m 4.443,-200.652 c -13.618,-22.273 -1.238,-14.01 12.645,-35.488 6.863,-10.613 5.831,-3.813 16.656,5.533 6.636,5.731 3.058,5.887 -4.598,11.4 -6.663,4.801 -14.728,11.057 -20.004,17.309 l -1.855,2.453 -1.362,0.528 z"
             style="fill:#d6a519;fill-opacity:1;fill-rule:evenodd;stroke:none"
             id="path6191" />
        </g>
        <g
           id="g6193"
           transform="translate(239.0903,534.9502)">
          <path
             d="m 0,0 v -246.579 c -1.318,-2.735 -2.391,-5.01 -3.142,-6.666 -12.564,-27.69 -24.327,-80.01 -25.859,-110.502 -1.007,-20.039 -3.131,-41.895 13.894,-55.619 4.431,-3.576 9.868,-8.276 15.107,-13.559 v -98.656 h -71.028 c 5.284,24.592 6.786,43.551 -5.892,67.437 -8.114,15.284 -14.38,30.065 -23.963,44.633 -1.86,2.807 -3.735,5.657 -5.377,8.594 -6.777,12.125 -5.647,29.584 -2.433,42.816 0.871,3.59 4.273,12.608 4.238,12.567 8.682,9.74 11.985,18.113 14.646,30.797 7.503,35.738 5.374,54.689 -3.259,89.944 -4.495,18.254 -3.655,24.57 -5.247,42.136 -1.665,18.371 -7.542,31.604 -9.885,48.111 -1.988,14.003 5.655,64.773 10.251,78.462 1.556,4.184 15.235,29.329 18.577,32.658 12.195,12.15 13.711,18.642 16.455,36.534 2.449,15.971 5.473,22.971 11.741,37.544 2.514,5.744 2.139,7.724 3.474,3.354 5.839,-19.109 4.772,-21.826 24.078,-32.07 C -16.951,8.395 -6.373,4.884 0,0"
             style="fill:#c69a19;fill-opacity:1;fill-rule:evenodd;stroke:none"
             id="path6195" />
        </g>
        <g
           id="g6197"
           transform="translate(239.0903,458.2979)">
          <path
             d="m 0,0 v -136.982 c -20.382,-30.923 -35.388,-62.867 -45.592,-102.947 -3.551,-13.347 -8.568,-27.504 -11.32,-40.851 -4.112,-19.942 11.474,-26.66 12.7,-42.838 1.314,-17.348 0.211,-26.592 8.366,-43.039 10.103,-20.377 26.174,-23.76 30.188,-43.606 1.297,-8.545 -3.294,-27.039 -8.891,-44.666 H -50.45 c 0.912,10.539 0.425,22.311 -1.465,36.637 -1.757,11.607 -3.88,22.914 -7.196,34.193 -9.269,31.537 -22.311,29.688 -37.629,50.231 -6.042,8.105 -8.481,25.742 -5.954,35.396 l 1.278,1.606 c 6.77,6.613 9.947,6.926 16.53,16.371 32.091,47.512 19.935,97.133 6.505,148.348 -5.907,22.543 -9.955,31.4 -4.516,54.991 7.276,31.563 5.765,29.536 2.607,58.704 -2.128,19.659 6.001,30.888 15.4,47.503 8.31,14.65 4.645,29.441 15.593,41.901 2.554,2.906 4.958,5.908 8.316,3.687 4.345,-2.873 12.018,-4.005 12.948,-6.52 2.726,-7.38 5.863,-13.731 9.621,-20.619 C -7.044,26.667 -3.476,24.244 -0.067,0.399 Z"
             style="fill:#d6a519;fill-opacity:1;fill-rule:evenodd;stroke:none"
             id="path6199" />
        </g>
        <g
           id="g6201"
           transform="translate(219.6421,382.1943)">
          <path
             d="m 0,0 c 4.452,18.34 11.859,22.753 9.002,45.26 -3.565,28.091 -12.919,44.214 -26.226,68.379 -0.765,1.402 -1.515,2.803 -2.248,4.208 -3.649,-16.742 -6.408,-18.503 -12.484,-33.142 -13.182,-31.762 11.659,-41.038 -3.13,-68.869 -4.931,-9.278 -5.721,-11.206 -8.092,-21.562 -4.95,-26.945 -6.723,-45.711 -0.638,-72.852 1.615,-7.2 7.04,-21.876 12.381,-26.728 3.321,-3.015 16.474,10.645 18.719,13.799 13.84,19.445 7.78,29.149 8.826,50.334 0.548,11.098 1.825,22.166 2.835,33.231 C -0.805,-5.1 -0.47,-2.804 0,0 m -65.15,-222.481 c -5.321,-4.528 -3.455,-17.129 0.189,-22.694 3.442,-5.258 14.212,-15.871 19.078,-21.26 0.78,18.075 6.089,24 -1.614,42.637 -2.058,4.983 -3.002,4.912 -4.164,10.6 -0.674,3.302 -3.899,-0.885 -6.052,-2.785 -2.469,-2.178 -4.942,-4.35 -7.437,-6.498 M -3.314,-331.39 c -3.091,2.323 -17.265,13.76 -20.386,11.688 -4.542,-3.014 3.959,-28.932 6.529,-33.377 1.942,-3.358 4.999,-8.211 8.887,-9.652 9.896,9.136 16.99,20.459 4.97,31.341"
             style="fill:#e4b52d;fill-opacity:1;fill-rule:evenodd;stroke:none"
             id="path6203" />
        </g>
      </g>
    </g>
  </g>
</svg>
